<svg xmlns="http://www.w3.org/2000/svg" viewBox="0 0 1762.81 1643.97">
  <g style="isolation:isolate">
    <path fill="#357e99" d="M162.09 1437.61c-13.9-9-21.28-18.45-21.28-28.12 0-68 363.1-123.09 811-123.09s811 55.11 811 123.09c0 53.19-222.35 98.5-533.68 115.7-11.33 66-282 118.78-614.35 118.78C275.24 1644 0 1588.86 0 1520.88c0-32.12 61.46-61.35 162.09-83.27Zm1385.75 134.14c80.37 0 145.53 13 145.53 29.13s-65.16 29.12-145.53 29.12-145.52-13-145.52-29.14 65.14-29.11 145.52-29.11ZM162.77 1319.29c-50 0-90.56-8.12-90.56-18.13s40.55-18.16 90.56-18.16 90.56 8.12 90.56 18.13-40.55 18.16-90.56 18.16Z"/>
    <path fill="#aedbf0" d="M1574.74 690.39c1.62 382.92-307.48 694.65-690.39 696.28S189.71 1079.2 188.08 696.29 495.55 1.64 878.46 0s694.65 307.48 696.28 690.39Z"/>
    <path fill="#cce8f3" d="M1574.73 687.47C1573.25 511 1504.82 335 1369.61 201S1057.85 0 881.38 0Z"/>
    <path fill="#88cdec" d="M374.24 220.63c-254.61 272.84-247.86 700.5 19 965.07s694.54 267.69 965.21 10.77Z"/>
    <path fill="#fff" d="m1037.07 93.48 67.91 17.04-67.77 17.61-17.04 67.92-17.61-67.77-67.92-17.04 67.77-17.62 17.04-67.91 17.62 67.77zm103.4 95.22 26.79 6.72-26.73 6.95-6.71 26.78-6.95-26.72-26.78-6.72 26.72-6.95 6.73-26.78 6.93 26.72zm-195.76-12.86 26.77 6.72-26.71 6.94-6.72 26.78-6.94-26.72-26.78-6.72 26.72-6.94 6.72-26.77 6.94 26.71zm-176.46 5.9 17.04-67.92 17.62 67.77 67.91 17.04-67.77 17.61-17.03 67.92-17.63-67.76-67.91-17.05 67.77-17.61zm95.23-103.4 6.71-26.78 6.95 26.72L903.91 85l-26.71 6.94-6.73 26.78L863.53 92l-26.77-6.72 26.72-6.94zm-12.87 195.75 6.72-26.77 6.94 26.72 26.79 6.71-26.72 6.95-6.72 26.77-6.95-26.72-26.78-6.71 26.72-6.95z"/>
    <path fill="#a7d7e0" d="M392.92 1345h-35.51V790.61c0-76.52 62.27-138.77 138.78-138.77S635 714.09 635 790.61v99.75h-35.54v-99.75a103.27 103.27 0 0 0-206.54 0Z"/>
    <path fill="#7cc5d0" d="M615.49 890.36V789.69a119.3 119.3 0 0 0-238.59 0V1345h16V790.61a103.27 103.27 0 0 1 206.54 0v99.75Z"/>
    <path fill="#1b0900" d="M558.7 1365.07c0 44.48-24.55 80.52-54.84 80.52s-54.82-36-54.82-80.52 24.54-80.5 54.82-80.5 54.84 36.04 54.84 80.5Z"/>
    <path fill="#a7d7e0" d="M555.56 1365.07c0 37.47-16.22 67.84-36.23 67.84s-36.24-30.37-36.24-67.84 16.22-67.83 36.24-67.83 36.23 30.37 36.23 67.83Z"/>
    <path fill="#8aa0a2" d="M549.46 1365.07c0 31.16-13.49 56.43-30.13 56.43s-30.15-25.27-30.15-56.43 13.5-56.42 30.15-56.42 30.13 25.26 30.13 56.42Z"/>
    <path fill="#a7d7e0" d="M533.88 1365.07c0 15.07-6.51 27.27-14.55 27.27s-14.57-12.2-14.57-27.27 6.52-27.25 14.57-27.25 14.55 12.18 14.55 27.25Z"/>
    <path fill="#11646f" d="M794.3 1284.33a151.47 151.47 0 0 1-151.47 151.46 151.45 151.45 0 0 1-151.45-151.46v-252.78a151.44 151.44 0 0 1 151.45-151.46 151.46 151.46 0 0 1 151.47 151.46Z"/>
    <path fill="#1a828f" d="M727.36 1315.37a118 118 0 0 1-118 118 118 118 0 0 1-118-118v-314.89a118 118 0 0 1 118-118 118 118 0 0 1 118 118Z"/>
    <path fill="#11646f" d="M513.24 1210.53h70.36v5.93h-70.36zm214.12-173.92h-47.74v240.28h5.92v-234.36h41.82v-5.92zM513.24 1224.9h70.36v5.91h-70.36zm0 14.37h70.36v5.91h-70.36zm0 14.37h70.36v5.93h-70.36z"/>
    <path fill="#269aa7" d="M653.11 986.59A40.66 40.66 0 1 1 612.45 946a40.65 40.65 0 0 1 40.66 40.59Z"/>
    <path fill="#182f46" d="M485.11 1271.05v15.45a157.73 157.73 0 1 0 315.46 0v-15.45Z"/>
    <path fill="#27425f" d="M485.11 1271.05v47.77a122.88 122.88 0 1 0 245.75 0v-47.77Z"/>
    <path fill="#269aa7" d="M676.13 917c9.89 19.78-59.7-.51-101 25.61s-78 163.69-78 163.69c-5.78-128.15 14.45-172.68 55.75-198.81S656.6 886.12 676.13 917Z"/>
    <path fill="#1b0900" d="M849.13 1365.07c0 44.48-24.55 80.52-54.83 80.52s-54.84-36-54.84-80.52 24.55-80.5 54.84-80.5 54.83 36.04 54.83 80.5Z"/>
    <path fill="#a7d7e0" d="M846 1365.07c0 37.47-16.22 67.84-36.24 67.84s-36.23-30.37-36.23-67.84 16.22-67.83 36.23-67.83 36.24 30.37 36.24 67.83Z"/>
    <path fill="#8aa0a2" d="M839.89 1365.07c0 31.16-13.49 56.43-30.14 56.43s-30.14-25.27-30.14-56.43 13.5-56.42 30.14-56.42 30.14 25.26 30.14 56.42Z"/>
    <path fill="#a7d7e0" d="M824.31 1365.07c0 15.07-6.52 27.27-14.56 27.27s-14.56-12.2-14.56-27.27 6.52-27.25 14.56-27.25 14.56 12.18 14.56 27.25Z"/>
    <path fill="#11646f" d="M647.4 986.59a34.94 34.94 0 1 1-34.95-34.93 35 35 0 0 1 34.95 34.93Z"/>
    <path fill="#2d4a6a" d="M656.8 1293c7.51 11.71-23.17 26.25-68.54 32.46s-88.23 1.74-95.75-10 23.19-26.26 68.54-32.47 88.23-1.71 95.75 10.01Z"/>
    <path fill="#406f95" d="M646.05 1291.24c1.9 3-39.31-1.83-78.7 3.55s-62 18.93-64 16 19.22-17.81 58.6-23.19 82.2.68 84.1 3.64Z"/>
    <path fill="#406f95" d="M632.85 1303.21c0 4.4-4.56 8-10.21 8s-10.19-3.57-10.19-8 4.57-8 10.19-8 10.21 3.58 10.21 8Z"/>
    <path fill="#a7d7e0" d="M779.61 1268.37c-182.38 0-182.38-85.76-182.38-292.94h30.44c0 216.65 5.12 262.51 151.94 262.51 70.06 0 111.89-34.37 111.89-92 0-33-6.78-56.4-20.15-69.69-17.5-17.43-45.94-17.25-71.05-17.18h-6v-30.37h5.86c28-.14 66.19-.31 92.66 26 19.58 19.5 29.11 49.35 29.11 91.27 0 75.51-54.54 122.4-142.32 122.4Z"/>
    <path fill="#7cc5d0" d="M871.35 1076.28c12 11.91 18.61 32 19.88 59.77.1-1.89.27-3.76.27-5.71 0-32.93-6.78-56.39-20.15-69.7-17.5-17.42-45.94-17.24-71.05-17.18h-6v15.63h6c25.11-.09 53.55-.24 71.05 17.19Z"/>
    <path fill="#7cc5d0" d="M779.61 1252.74c-177.7 0-182.25-81.47-182.36-277.31 0 207.18 0 292.94 182.38 292.94 87.78 0 142.32-46.89 142.32-122.4 0-2.65-.16-5.11-.23-7.67-3.72 70.82-57.46 114.44-142.11 114.44Z"/>
    <path fill="#a7d7e0" d="M636.62 986.59a24.17 24.17 0 1 1-24.17-24.15 24.17 24.17 0 0 1 24.17 24.15Z"/>
    <path fill="#27425f" d="M354.55 1308.65h42.35v95.03h-42.35z"/>
    <path fill="#2d4a6a" d="M403.37 1357a3.19 3.19 0 0 1-3.19 3.19h-48.91a3.19 3.19 0 0 1-3.19-3.19v-57.22a3.19 3.19 0 0 1 3.19-3.19h48.91a3.19 3.19 0 0 1 3.19 3.19Z"/>
    <path fill="#182f46" d="M400.94 1296.64v59.69a2.81 2.81 0 0 1-2.81 2.82h-44.81a2.82 2.82 0 0 1-2.82-2.82v-59.69a3.19 3.19 0 0 0-2.42 3.09V1357a3.19 3.19 0 0 0 3.19 3.19h48.91a3.19 3.19 0 0 0 3.19-3.19v-57.22a3.18 3.18 0 0 0-2.43-3.14Z"/>
    <path fill="#182f46" d="M355.6 1298.49a1 1 0 0 0-1 1v60.19h1.9v-60.19a1 1 0 0 0-.9-1Zm5.18 0a1 1 0 0 0-1 1v60.19h1.91v-60.19a1 1 0 0 0-.91-1Zm5.22 0a1 1 0 0 0-.95 1v60.19h1.9v-60.19a1 1 0 0 0-.95-1Zm5.12 0a1 1 0 0 0-.95 1v60.19h1.91v-60.19a1 1 0 0 0-.96-1Zm5.19 0a1 1 0 0 0-1 1v60.19h1.89v-60.19a1 1 0 0 0-.89-1Zm5.17 0a1 1 0 0 0-1 1v60.19h1.9v-60.19a1 1 0 0 0-.9-1Z"/>
    <path fill="#406f95" d="M357.07 1297.31h1.18v61.05h-1.18zm5.18 0h1.17v61.05h-1.17zm5.16 0h1.19v61.05h-1.19zm5.18 0h1.18v61.05h-1.18zm5.18 0h1.18v61.05h-1.18zm5.17 0h1.18v61.05h-1.18zm-29.87 61.05-1.18-1.14v-59.91h1.18v61.05z"/>
    <path fill="#182f46" d="M386.65 1298.49a1 1 0 0 0-.95 1v60.19h1.9v-60.19a1 1 0 0 0-.95-1Zm5.18 0a1 1 0 0 0-1 1v60.19h1.91v-60.19a1 1 0 0 0-.91-1Zm5.17 0a1 1 0 0 0-.95 1v60.19H398v-60.19a1 1 0 0 0-1-1Z"/>
    <path fill="#406f95" d="M388.11 1297.31h1.18v61.05h-1.18zm5.19 0h1.18v61.05h-1.18zm5.17 0h1.19v61.05h-1.19z"/>
    <path fill="#182f46" d="M370.84 1430.19h135.12l-33.53-29.67h-57.32l-44.27 29.67z"/>
    <path fill="#27425f" d="M386.95 1430.19H208.16l77.19-29.67h178.79l-77.19 29.67z"/>
    <path fill="#061d31" d="M514.18 1437.89a7.69 7.69 0 0 1-7.69 7.7H322a7.7 7.7 0 0 1-7.7-7.7 7.69 7.69 0 0 1 7.7-7.69h184.49a7.68 7.68 0 0 1 7.69 7.69Z"/>
    <path fill="#182f46" d="M399.66 1437.89a7.7 7.7 0 0 1-7.7 7.7H207.4a7.71 7.71 0 0 1-7.7-7.7 7.69 7.69 0 0 1 7.7-7.69H392a7.69 7.69 0 0 1 7.7 7.69Z"/>
    <path fill="#406f95" d="M425.11 1411.81c0 3.49-35.48 6.32-79.24 6.32s-79.23-2.83-79.23-6.32 35.47-6.33 79.23-6.33 79.24 2.84 79.24 6.33ZM279.86 1420c0 1.28-9.6 2.32-21.45 2.32s-21.46-1-21.46-2.32 9.61-2.31 21.46-2.31 21.45 1 21.45 2.31Z"/>
    <path fill="#2d4a6a" d="M1166.37 75c-42-17-70.67 71.49-70.67 71.49s109.02-52.01 70.67-71.49Z"/>
    <path fill="#223b56" d="M1149.4 89.16c-22.14-8.94-53.7 57.37-53.7 57.37s73.92-47.11 53.7-57.37Z"/>
    <path fill="#2d4a6a" d="M1009.84 75c42-17 70.65 71.49 70.65 71.49S971.47 94.48 1009.84 75Z"/>
    <path fill="#223b56" d="M1026.8 89.16c22.13-8.94 53.69 57.37 53.69 57.37s-73.91-47.11-53.69-57.37Z"/>
    <path fill="#223b56" d="M1107.22 143.34a22 22 0 1 1-22-22 22 22 0 0 1 22 22Z"/>
    <path fill="#2d4a6a" d="M970.05 298.35c2.67.68-36.83-221.93 121.63-150.66C1008.09 191 972.72 299 972.72 299"/>
    <path fill="#2d4a6a" d="M1198.11 298.35c-2.67.68 45.18-221.93-113.29-150.66C1168.42 191 1195.44 299 1195.44 299"/>
    <path fill="#1b0900" d="M977 298.35s18.91 123.29-41.41 138.19c10 12.11 82.27 45.44 149.65 6.43Z"/>
    <path fill="#1b0900" d="M1182.81 298.35s-18.9 123.29 41.41 138.19c-10 12.11-82.26 45.44-149.65 6.43Z"/>
    <path fill="#dbdbdb" d="m983.06 1461.48-69.78 14.82v16.67h104.45v-31.49h-34.67z"/>
    <path fill="#1a828f" d="m945.09 976.77 18.53 226.89 19.44 255.41s15.52 21 35 0l22.22-151.89-8.33-103.52 48.39-226.89Z"/>
    <path fill="#d8dade" d="m1012.7 979.18-25.23 226 15.57 265c5.11-.63 15-8.66 15-8.66l22.22-151.89-8.33-103.52 48.39-226.89Z" style="mix-blend-mode:multiply"/>
    <path fill="#dbdbdb" d="M1118.29 1461.48h-24.28l-17.6 14.82v16.67h60.24v-16.67l-18.36-14.82z"/>
    <path fill="#1a828f" d="m1157.33 979.18-6.48 226.43-31.48 255.87s-16.07 13-24.41-1.1l-22.25-151.88 8.36-103.52-40.77-225.8Z"/>
    <path fill="#d8dade" d="M1115.63 1471.9c-17.91 0-32.42 2.34-32.42 5.21h46.64c0-2.87 3.68-5.21-14.22-5.21Z" style="mix-blend-mode:multiply"/>
    <path fill="none" stroke="#d68552" stroke-miterlimit="10" stroke-width="44.46" d="M982.52 518c.45.92-56.55 59.64-71.07 237.2l-8 184.82"/>
    <path fill="#fff" d="M888.61 643.68c3.71-146.34 116.93-191.27 116.93-191.27l22.92 106.05c-51 16.68-61.12 85.22-61.12 85.22Z"/>
    <path fill="#fff" d="M1220.16 518s-93.13 132.21-45.62 328.9C1110.1 900 945.09 710 945.09 593.35s61.45-133.35 90.45-143.25h151.25c23.46 8.22 33.37 33.69 33.37 67.9Z"/>
    <path fill="#d8dade" d="M1020 450.1c-39.84 21.2-61.44 71.63-61.44 118.56h29.94c3.84-66.69 8.78-101.27 55.09-118.56Zm143.18 0c-39.82 21.2-61.44 71.63-61.44 118.56l13.5 18c20.76-72.71 25.23-119.23 71.55-136.52Z" style="mix-blend-mode:multiply"/>
    <path fill="#27425f" d="M1186.79 993.05c-22.52 122.06-14.18 201.5-14.18 201.5-131.33 29.81-256.12-6.3-256.12-6.3l35.88-404.71-7.28-214.88c27.35-33 137.77-26.61 171.34 0-18.59 194.36 60.8 259.73 60.8 259.73s32.07 88.61 9.56 164.66Z"/>
    <path fill="#2d4a6a" d="M958.54 662C963 662 976 728 976 806.8s-14.7 142.72-19.17 142.72 3-63.9 3-142.72-5.78-144.8-1.29-144.8Z"/>
    <path fill="#27425f" d="M1006.54 450.1c-39.84 21.2-61.45 71.63-61.45 118.56H975c4.63-75 25.32-101.27 71.63-118.56Zm140.11 0c-55.85 17.29-61.44 71.63-61.44 118.56h31.22c-1.86-69.77 19.3-97.76 70.36-118.56Z"/>
    <path fill="#d8dade" d="M1095.76 652.5c0 43-28.63 77.92-63.92 77.92s-63.92-34.9-63.92-77.92 28.62-33.22 63.92-33.22 63.92-9.84 63.92 33.22Z" style="mix-blend-mode:multiply"/>
    <path fill="#d8dade" d="M1095.73 653.24v-.74c0-43.06-28.63-33.22-63.92-33.22s-63.92-9.84-63.92 33.22v.74Z" style="mix-blend-mode:multiply"/>
    <path fill="none" stroke="#d68552" stroke-miterlimit="10" stroke-width="44.46" d="M1220.16 518c.46.92 57.7 92.62 43.18 270.19l-196.14 20.69"/>
    <path fill="#fac52f" d="M1038.71 757.64s45.77-5.8 45.08 23.58-28.24 6.39-28.24 6.39Z"/>
    <path fill="#b89021" d="M1068.23 780.43c-.22-2.61 6.46-11.35 6.46-11.35s-15.45-11.9-36-11.44c13.7 4.88 25.16 19.16 29.54 22.79Z"/>
    <path fill="#e96f4c" d="M993.71 741.3v-21.63l35.89 18.51c-12.83 23.06-8.38 8.75-15.72 6.24l-11.69-4c0 23.45-27.3 28-27.3 20.78 19.59-3.92 18.82-19.9 18.82-19.9Z"/>
    <path fill="#843f25" d="m1004.93 740.56 11.68 4c3.11 1.06 4.12 4.2 5.19 5.77-3.4 3.22-2.85-4.14-7.92-5.88l-11.69-4Zm-11.22.74v-21.63l2.74 1.42v20.32s.78 16-18.81 19.93c0 1.65 1.4 2.68 3.56 3-3.65.25-6.31-.86-6.31-3.12 19.59-3.94 18.82-19.92 18.82-19.92Z"/>
    <path fill="#a7d7e0" d="M965.39 711.48h12.91v13.78h-12.91z"/>
    <path fill="#7cc5d0" d="M965.39 719.67h12.91v5.37h-12.91z"/>
    <path fill="#c7e6eb" d="M965.39 713.05h12.91v2.69h-12.91z"/>
    <path fill="#e96f4c" d="m1046.59 710.52 24.89 27.11-8.69 16.99h-33.19l-5.53-10.19-36.42-18.47h-11v-15.44h69.94z"/>
    <path fill="#fff" d="m1063.69 743.49-24.89-27.11h-62.15v-5.86h69.94l24.89 27.11-8.69 16.99.9-11.13z" opacity=".1"/>
    <path fill="#fff" d="M983.26 712.91c0 1 12.8 1.72 28.58 1.72s28.59-.77 28.59-1.72-12.8-1.71-28.59-1.71-28.58.8-28.58 1.71Zm67.04 5.72c3.09 3.35 5 6.58 4.35 7.22s-3.75-1.56-6.84-4.93-5-6.58-4.34-7.21 3.74 1.56 6.83 4.92Z" opacity=".3"/>
    <path fill="#7cc5d0" d="M991.39 842s32.65-22.06 36.4-76.16h38.31l26.72 152.32H1013A41.14 41.14 0 0 1 991.39 842Z"/>
    <path fill="#a7d7e0" d="M997.4 842s32.82-19.83 36.19-68.5H1062l24 137h-69.19A37 37 0 0 1 997.4 842Z"/>
    <path fill="#c7e6eb" d="M1037 777.66c-2.47-1.18-1.54 15.66-10 33.3s-22.63 26.74-20.15 27.92 17.66-7 26.11-24.7 6.5-35.34 4.04-36.52Zm4.48 1.77a4.23 4.23 0 1 0 5.25-2.86 4.22 4.22 0 0 0-5.25 2.86Z"/>
    <path fill="#e96f4c" d="M1008.47 851.72A53 53 0 0 0 1028 835h29.1l11.27 64.26h-46.28a25.69 25.69 0 0 1-13.58-47.51Z"/>
    <path fill="#fff" d="M993.71 873.54a28.34 28.34 0 0 0 28.34 28.34h49.43l-12.2-69.54h-32.73a50.29 50.29 0 0 1-19.37 17.07 28.32 28.32 0 0 0-13.47 24.13Zm2.64 0a25.59 25.59 0 0 1 12.12-21.82A53 53 0 0 0 1028 835h29.1l11.27 64.26h-46.28a25.72 25.72 0 0 1-25.74-25.72Z"/>
    <path fill="#c05c3c" d="M1028.2 867.38a10.92 10.92 0 0 0 10.91 10.91 10.92 10.92 0 0 0 10.89-10.91V849.7a10.9 10.9 0 0 0-10.92-10.9 10.9 10.9 0 0 0-10.91 10.9Z"/>
    <path fill="#843f25" d="M1031.64 866.72a7.48 7.48 0 0 0 7.47 7.47 7.47 7.47 0 0 0 7.48-7.47v-16.36a7.47 7.47 0 0 0-7.48-7.47 7.48 7.48 0 0 0-7.47 7.47Zm-15.36 12.98h45.12v2.86h-45.12zm0 5.26h45.12v2.87h-45.12zm0 5.25h45.12v2.87h-45.12z"/>
    <path fill="#2d4a6a" d="M1022.19 763.74a2.66 2.66 0 0 0 2.65 2.66h40.77a2.67 2.67 0 0 0 2.67-2.66v-8.89a2.66 2.66 0 0 0-2.67-2.65h-40.77a2.65 2.65 0 0 0-2.65 2.65Z"/>
    <path fill="#182f46" d="M1024.2 752.28v10.94a2.35 2.35 0 0 0 2.35 2.35h37.35a2.35 2.35 0 0 0 2.35-2.35v-10.94a2.67 2.67 0 0 1 2 2.57v8.89a2.67 2.67 0 0 1-2.67 2.66h-40.77a2.66 2.66 0 0 1-2.65-2.66v-8.89a2.64 2.64 0 0 1 2.04-2.57Z"/>
    <path fill="#182f46" d="M1062 753.82a.8.8 0 0 1 .8.8V766h-1.59v-11.38a.8.8 0 0 1 .79-.8Zm-4.32 0a.79.79 0 0 1 .79.8V766h-1.58v-11.38a.8.8 0 0 1 .79-.8Zm-4.3 0a.79.79 0 0 1 .78.8V766h-1.58v-11.38a.8.8 0 0 1 .8-.8Zm-4.32 0a.79.79 0 0 1 .79.8V766h-1.59v-11.38a.8.8 0 0 1 .8-.8Zm-4.31 0a.81.81 0 0 1 .79.8V766H1044v-11.38a.8.8 0 0 1 .75-.8Zm-4.32 0a.8.8 0 0 1 .79.8V766h-1.58v-11.38a.79.79 0 0 1 .79-.8Z"/>
    <path fill="#406f95" d="M1059.79 752.84h.98v12.07h-.98zm-4.32 0h.99v12.07h-.99zm-4.31 0h1v12.07h-1zm-4.32 0h.99v12.07h-.99zm-4.31 0h1v12.07h-1zm-4.31 0h.98v12.07h-.98zm25.88 12.07.99-.94v-11.13h-.99v12.07z"/>
    <path fill="#182f46" d="M1036.12 753.82a.8.8 0 0 1 .79.8V766h-1.59v-11.38a.8.8 0 0 1 .8-.8Zm-4.32 0a.79.79 0 0 1 .79.8V766H1031v-11.38a.8.8 0 0 1 .8-.8Zm-4.31 0a.79.79 0 0 1 .79.8V766h-1.58v-11.38a.79.79 0 0 1 .79-.8Z"/>
    <path fill="#406f95" d="M1033.91 752.84h.99v12.07h-.99zm-4.31 0h.98v12.07h-.98zm-4.31 0h.98v12.07h-.98z"/>
    <path fill="#fac52f" d="m1145.13 845.73-77.67-7.67V779.3l77.67-10.22v76.65z"/>
    <path fill="#fac52f" d="M1067.46 779.3s-7.58-24.62-37.59-24-29.35 68.18-20.64 78.38 28.55 21.68 58.23 4.43 0-58.81 0-58.81Z"/>
    <path fill="#fff" d="M1309.07 643.68c-3.7-146.34-116.93-191.27-116.93-191.27l-22.91 106.05c51 16.68 61.12 85.22 61.12 85.22Z"/>
    <path fill="#2d4a6a" d="M1019.18 450.1c4.48 0-51.52 31.65-51.26 85.21l-8.92 99.4c-9.43 0-8.08 8-8.56-94.8-.26-53.57 64.26-89.78 68.74-89.81Zm140.82 0c4.49 0-51.51 31.65-51.25 85.21l-8.94 68.79c-9.41 0-8.55-20.62-8.55-64.19-.05-53.57 64.22-89.78 68.74-89.81Z"/>
    <path fill="#d68552" d="M1128.88 452.41c-20.81 17-12.68 25.39-61.42 25.39-36.44 0-40.21-8.37-19.4-25.39Zm-118.45-135.2c0 14.92-10.08 27-22.52 27s-22.52-12.1-22.52-27 10.08-27 22.52-27 22.52 12.08 22.52 27Zm198.87 0c0 14.92-10.08 27-22.51 27s-22.52-12.1-22.52-27 10.07-27 22.52-27 22.51 12.08 22.51 27Z"/>
    <path fill="#d68552" d="m1106.58 464.08-48-3.14c.12-3.37.08-31.91 0-57l48.16-.2c.14 56.55-.07 59.26-.16 60.34Z"/>
    <path fill="#d8dade" d="M1099.29 447.33s-43.07 10.65-40.8-43.43l48.16-.2s2.35 43.63-7.36 43.63Z" style="mix-blend-mode:multiply"/>
    <path fill="#d68552" d="M1197 262.36c0 72.94-50.06 171.53-111.83 171.53S973.38 335.3 973.38 262.36s50.07-92.57 111.83-92.57S1197 189.43 1197 262.36Z"/>
    <path fill="#1b0900" d="M1164.58 245.5c9.15 32.81 26.25 48.31 12.29 105.62.2 2.19 18.69-42.64 23.63-105.62Z"/>
    <path fill="#1b0900" d="M993.58 351.2c-.38 4.17-116.85-223 183.75-207.06-17.71 14.82 9.46 63.75 28.81 72.71 14 32.22-44.14 94.33-120.93-4.43 0 0-2.56 45.06-89.33 65.21-7.33 17.02-2.61 43.49-2.3 73.57Z"/>
    <path fill="#dbdbdb" d="M1054.69 384.08c0 13.17 13.67 23.85 30.52 23.85s30.52-10.68 30.52-23.85Z"/>
    <path fill="#d8dade" d="m1100.4 331.02 3.32-13.81 1.26 15.23 10.75 38.15-35.24 2.31 28.89-5.97-8.98-35.91z" style="mix-blend-mode:multiply"/>
    <path fill="#1b0900" d="m1100.4 286.29 20.73-1.92s12.53 7.08 35.1 7.08c-10.23 4.55-55.83-5.16-55.83-5.16Zm-25.83 0-20.73-1.92s-12.52 7.08-35.09 7.08c10.25 4.55 55.82-5.16 55.82-5.16ZM1127 318.9c0 9.42-2.63 17.06-5.9 17.06s-5.89-7.64-5.89-17.06 2.64-17.06 5.89-17.06 5.9 7.64 5.9 17.06Zm-71.63 0c0 9.42-2.64 17.06-5.91 17.06s-5.89-7.64-5.89-17.06 2.64-17.06 5.89-17.06 5.91 7.64 5.91 17.06Z"/>
    <path fill="#1b0900" d="M1122.05 302.07v10s7.61-.34 8.94-8c-1.99 3.01-8.94-2-8.94-2Zm-71.84 0v10s7.62-.34 9-8c-2.05 3.01-9-2-9-2Z"/>
    <path fill="#fac52f" d="M946.5 980.3s5.56-40.82-23.67-43.76-1.44 21.12-1.44 21.12 9.75 33.88 18.16 35c3.52.47 6.95-12.36 6.95-12.36Z"/>
    <path fill="#fac52f" d="m866.4 867.67-2 78.03 58.31 7.28 19.75-75.82-76.06-9.49z"/>
    <path fill="#fac52f" d="M922.71 953s6 32.25 1.74 62-50.48 11.49-59.51 1.59-21.32-43.59-.54-70.89 58.31 7.3 58.31 7.3Z"/>
  </g>
</svg>
