<?xml version="1.0" standalone="no"?>
<!DOCTYPE svg PUBLIC "-//W3C//DTD SVG 20010904//EN"
 "http://www.w3.org/TR/2001/REC-SVG-20010904/DTD/svg10.dtd">
<svg version="1.0" xmlns="http://www.w3.org/2000/svg"
 width="1763.000000pt" height="1763.000000pt" viewBox="0 0 1763.000000 1763.000000"
 preserveAspectRatio="xMidYMid meet">
<metadata>
Created by potrace 1.14, written by Peter Selinger 2001-2017
</metadata>
<g transform="translate(0.000000,1763.000000) scale(0.100000,-0.100000)"
fill="#000000" stroke="none">
<path d="M8509 17036 c-2 -2 -65 -7 -139 -11 -74 -3 -142 -8 -150 -10 -8 -2
-49 -7 -91 -10 -42 -3 -85 -7 -96 -9 -10 -2 -50 -7 -88 -10 -39 -4 -77 -9 -85
-11 -8 -2 -40 -7 -70 -10 -30 -4 -57 -8 -60 -10 -3 -2 -30 -6 -60 -10 -30 -3
-62 -8 -70 -10 -8 -2 -31 -7 -50 -10 -162 -27 -498 -108 -705 -170 -66 -20
-127 -38 -135 -40 -83 -21 -536 -192 -669 -252 -156 -71 -198 -91 -341 -162
-252 -126 -506 -274 -745 -434 -76 -51 -359 -255 -398 -287 -7 -5 -32 -26 -57
-46 -102 -82 -253 -209 -291 -244 -8 -8 -67 -63 -130 -121 -222 -207 -376
-370 -577 -609 -635 -755 -1090 -1612 -1361 -2560 -57 -201 -125 -497 -156
-680 -3 -19 -10 -60 -15 -90 -32 -183 -59 -428 -79 -720 -9 -121 -6 -790 3
-875 3 -27 8 -81 11 -120 7 -90 15 -173 20 -205 2 -14 7 -52 10 -85 4 -33 10
-85 15 -115 5 -30 11 -71 14 -90 21 -141 84 -448 130 -630 185 -735 517 -1482
934 -2105 138 -206 210 -308 264 -375 16 -19 32 -39 36 -45 23 -32 121 -154
179 -223 l68 -80 -1 -738 c-1 -407 -2 -742 -3 -746 0 -4 -17 -5 -36 -4 -19 2
-39 -2 -44 -8 -6 -7 -12 -77 -13 -156 l-3 -144 -70 -12 c-38 -7 -81 -14 -95
-17 -14 -3 -86 -17 -162 -31 -860 -165 -1431 -363 -1640 -571 -127 -126 -130
-247 -11 -370 26 -26 64 -60 85 -75 l38 -28 -72 -16 c-40 -9 -83 -18 -96 -21
-87 -19 -222 -55 -347 -91 -66 -20 -127 -38 -135 -40 -13 -3 -134 -44 -260
-88 -148 -53 -428 -195 -506 -258 -65 -53 -137 -132 -165 -183 -30 -53 -34
-69 -34 -130 1 -55 7 -82 28 -127 66 -138 262 -278 577 -411 95 -40 410 -150
463 -162 12 -2 72 -18 132 -35 61 -17 148 -40 195 -51 140 -32 442 -98 480
-104 19 -3 55 -10 80 -15 25 -5 61 -12 80 -14 19 -3 46 -8 60 -11 25 -5 139
-24 175 -30 11 -1 36 -5 55 -9 19 -3 53 -8 75 -11 36 -5 132 -20 195 -30 14
-2 45 -6 70 -9 39 -5 211 -27 320 -41 19 -2 60 -7 90 -10 30 -3 66 -8 80 -10
14 -2 54 -7 90 -10 76 -6 155 -15 190 -20 14 -2 63 -7 110 -10 47 -3 96 -8
110 -10 14 -2 66 -7 115 -10 50 -3 110 -8 135 -10 75 -6 222 -17 270 -20 25
-1 92 -6 150 -9 186 -12 233 -15 370 -21 74 -4 164 -8 200 -10 377 -20 1711
-27 2170 -11 493 17 842 34 1185 61 33 2 96 7 140 10 76 5 108 8 235 20 30 3
82 7 115 10 33 3 148 15 255 26 107 12 206 22 220 24 65 6 157 18 175 21 11 2
43 6 70 9 45 5 76 9 155 20 14 2 45 7 70 10 25 3 56 8 70 10 14 2 45 7 70 10
25 3 70 10 100 15 30 5 71 12 90 15 19 3 46 7 60 10 14 3 41 7 60 10 31 5 105
18 165 29 11 2 36 6 55 10 39 7 35 6 175 35 448 91 837 201 1133 320 57 23
115 49 130 59 14 9 29 16 32 16 13 -4 163 81 245 139 72 50 155 140 185 201
17 33 30 65 30 73 0 9 15 13 48 14 26 0 61 2 77 3 17 2 86 6 155 10 69 4 143
9 165 11 22 1 90 6 150 10 61 3 121 8 135 10 14 2 75 6 135 10 61 3 128 8 150
10 22 3 72 7 110 10 75 6 152 13 225 20 25 3 77 7 115 10 39 3 85 8 103 10 18
2 67 7 109 11 42 3 85 7 95 9 11 2 54 7 96 10 42 4 88 8 102 10 14 2 50 7 80
10 30 3 89 10 130 15 41 5 98 12 125 15 28 3 61 8 75 10 37 5 109 14 160 20
25 3 56 8 70 10 14 2 50 7 80 10 30 3 62 8 70 10 8 2 38 7 65 10 28 3 93 12
145 21 52 8 111 17 130 20 19 3 76 12 125 21 50 8 104 17 120 20 51 8 268 47
315 58 14 3 39 8 55 11 17 3 35 7 40 8 13 4 76 16 95 20 36 6 178 38 205 46
17 5 41 11 55 14 131 24 533 146 705 214 179 71 366 181 440 259 144 153 100
308 -130 458 -158 103 -356 184 -715 293 -190 58 -676 168 -965 218 -14 2 -37
6 -52 9 -86 16 -325 55 -368 61 -27 3 -59 8 -70 10 -42 8 -266 40 -345 49 -25
3 -55 7 -67 9 -12 3 -46 7 -75 10 -29 4 -62 8 -73 10 -12 2 -51 7 -87 10 -37
4 -75 8 -85 10 -10 2 -48 7 -85 10 -37 4 -77 9 -90 11 -13 2 -52 6 -88 9 -36
4 -74 8 -85 10 -11 2 -58 7 -105 11 -47 3 -96 8 -110 10 -41 6 -196 21 -425
40 -38 4 -90 8 -115 11 -25 2 -83 6 -130 9 -47 3 -101 7 -120 10 -19 2 -78 7
-130 10 -100 7 -132 9 -295 19 -55 4 -129 9 -165 11 -36 3 -110 7 -165 10 -55
4 -101 8 -103 9 -1 2 55 39 125 82 466 283 890 618 1283 1013 237 238 466 497
592 669 23 31 44 59 48 62 14 12 78 102 226 321 348 516 624 1077 817 1664 58
176 96 298 103 330 1 6 16 62 32 125 46 172 113 489 128 605 3 28 8 53 10 56
2 3 6 33 10 65 3 32 7 61 9 64 2 3 6 39 10 80 4 41 9 84 11 95 2 11 6 51 10
90 3 38 7 86 9 105 26 251 26 1016 0 1182 -2 13 -6 52 -9 88 -6 55 -15 133
-42 335 -55 427 -212 1018 -392 1480 -146 375 -372 832 -556 1123 -108 172
-304 459 -362 531 -7 9 -50 63 -95 121 -540 688 -1216 1276 -1979 1720 -163
95 -435 236 -580 300 -63 28 -128 57 -145 65 -189 85 -518 204 -785 284 -126
37 -417 112 -485 124 -16 3 -86 17 -155 31 -109 22 -295 52 -425 70 -35 5
-227 25 -400 41 -68 7 -800 16 -806 11z m-4429 -11996 c74 -72 279 -250 422
-365 101 -82 350 -265 388 -285 12 -6 20 -21 20 -35 0 -21 -5 -25 -30 -25
l-30 0 0 -92 0 -93 -45 -28 c-47 -30 -124 -109 -152 -158 -17 -29 -31 -34
-118 -44 -27 -3 -66 -7 -85 -10 -19 -2 -57 -7 -85 -10 -27 -3 -61 -8 -75 -10
-24 -3 -56 -7 -167 -21 -27 -3 -56 -8 -65 -10 -20 -6 -19 -10 -22 123 0 45 -4
85 -8 89 -4 4 -27 7 -50 8 l-43 1 -3 555 -2 555 67 -65 c37 -36 74 -72 83 -80z"/>
<path d="M1409 4206 c-2 -2 -49 -6 -104 -10 -215 -13 -417 -52 -515 -99 -26
-12 -70 -53 -70 -65 0 -17 33 -53 63 -68 62 -33 203 -68 357 -89 33 -5 157
-16 228 -21 79 -5 434 -5 507 0 137 10 211 16 230 20 11 2 43 7 70 10 119 15
258 56 318 93 42 27 48 57 18 90 -36 39 -198 88 -356 108 -27 3 -66 9 -85 11
-19 3 -60 8 -90 11 -64 6 -566 14 -571 9z"/>
<path d="M15488 1325 c-2 -1 -104 -6 -228 -9 -124 -4 -250 -8 -280 -11 -77 -6
-168 -14 -215 -21 -22 -3 -56 -7 -75 -9 -201 -23 -460 -84 -555 -132 -51 -26
-96 -64 -106 -90 -33 -89 163 -186 481 -238 25 -4 52 -9 60 -10 121 -21 293
-40 474 -53 222 -14 904 -6 1026 13 14 2 54 7 90 10 91 8 151 15 180 21 47 8
65 12 110 19 25 4 54 9 65 12 11 2 33 7 50 10 144 26 317 101 353 153 27 40
27 37 3 77 -53 86 -323 172 -656 209 -22 2 -53 6 -70 9 -16 2 -66 7 -110 11
-44 3 -98 8 -120 10 -22 2 -130 6 -240 9 -110 3 -208 7 -217 9 -9 2 -18 3 -20
1z"/>
</g>
</svg>
